<svg width="92" height="92" viewBox="0 0 92 92" fill="none" xmlns="http://www.w3.org/2000/svg">
<path d="M30.0234 59V48.875H36.6328V42.8281H30.0234V14.3516L23.1328 14.1406C21.3984 14.1406 19.9922 14.3984 18.9141 14.9141C17.8359 15.4297 17.0625 15.9922 16.5938 16.6016C16.1719 17.2109 15.4453 18.4531 14.4141 20.3281L14.3438 20.3984L1.61719 43.8125V48.875H22.7812V59H30.0234ZM20.3906 21.2422C20.7656 20.7734 21.1172 20.5391 21.4453 20.5391H22.7812V42.8281H8.71875L20.3906 21.2422ZM41.7656 45.7109V59H68.6953V52.8125H49.0078V45.7109C49.0078 44.6328 49.3125 43.9062 49.9219 43.5312C50.0625 43.4375 50.1797 43.3672 50.2734 43.3203L62.8594 36.9922C65.7656 35.4922 67.5703 33.9922 68.2734 32.4922C68.6953 31.5078 68.9062 30.3594 68.9062 29.0469V23.4219C68.9062 17.0938 65.6953 13.9766 59.2734 14.0703C59.2266 14.0703 59.1797 14.0703 59.1328 14.0703L42.75 14.3516V20.5391H60.75C61.3125 20.6328 61.6172 20.9375 61.6641 21.4531V29.5391C61.6172 30.0547 61.3125 30.4766 60.75 30.8047L47.7422 37.4141C45.2109 38.6328 43.6172 39.7344 42.9609 40.7188C42.1641 41.8906 41.7656 43.5547 41.7656 45.7109Z" fill="white"/>
<path d="M2.06545 85H3.41545V79.735H7.02445V78.385H3.41545V72.85H7.51045V71.5H2.06545V85ZM10.9565 85V71.5H9.60646V85H10.9565ZM15.204 85H16.554V72.85H18.867V71.5H12.882V72.85H15.204V85ZM20.7861 85H22.0911V74.974L25.9431 85H27.1311V71.5H25.8261V81.517L21.9831 71.5H20.7861V85ZM35.7409 71.5H30.2959V85H35.7409V83.65H31.6459V78.925H35.2549V77.575H31.6459V72.85H35.7409V71.5ZM40.756 85.288C41.722 85.288 42.496 84.982 43.078 84.37C43.66 83.758 43.951 82.954 43.951 81.958V80.95C43.951 80.386 43.93 79.942 43.888 79.618C43.852 79.294 43.738 79.033 43.546 78.835C43.36 78.637 43.048 78.451 42.61 78.277C42.172 78.103 41.554 77.884 40.756 77.62C40.294 77.464 39.937 77.335 39.685 77.233C39.433 77.131 39.25 77.02 39.136 76.9C39.028 76.78 38.962 76.624 38.938 76.432C38.92 76.234 38.911 75.97 38.911 75.64V74.542C38.911 73.948 39.079 73.471 39.415 73.111C39.751 72.745 40.198 72.562 40.756 72.562C41.314 72.562 41.761 72.745 42.097 73.111C42.433 73.471 42.601 73.948 42.601 74.542V74.992H43.951V74.542C43.951 73.54 43.66 72.736 43.078 72.13C42.496 71.518 41.722 71.212 40.756 71.212C39.796 71.212 39.022 71.518 38.434 72.13C37.852 72.736 37.561 73.54 37.561 74.542V75.64C37.561 76.204 37.579 76.648 37.615 76.972C37.657 77.296 37.771 77.557 37.957 77.755C38.149 77.953 38.464 78.139 38.902 78.313C39.34 78.487 39.958 78.706 40.756 78.97C41.218 79.12 41.575 79.249 41.827 79.357C42.079 79.459 42.259 79.57 42.367 79.69C42.481 79.81 42.547 79.969 42.565 80.167C42.589 80.359 42.601 80.62 42.601 80.95V81.958C42.601 82.552 42.433 83.032 42.097 83.398C41.761 83.758 41.314 83.938 40.756 83.938C40.198 83.938 39.751 83.758 39.415 83.398C39.079 83.032 38.911 82.552 38.911 81.958V81.508H37.561V81.958C37.561 82.954 37.852 83.758 38.434 84.37C39.022 84.982 39.796 85.288 40.756 85.288ZM49.2463 85.288C50.2123 85.288 50.9863 84.982 51.5683 84.37C52.1503 83.758 52.4413 82.954 52.4413 81.958V80.95C52.4413 80.386 52.4203 79.942 52.3783 79.618C52.3423 79.294 52.2283 79.033 52.0363 78.835C51.8503 78.637 51.5383 78.451 51.1003 78.277C50.6623 78.103 50.0443 77.884 49.2463 77.62C48.7843 77.464 48.4273 77.335 48.1753 77.233C47.9233 77.131 47.7403 77.02 47.6263 76.9C47.5183 76.78 47.4523 76.624 47.4283 76.432C47.4103 76.234 47.4013 75.97 47.4013 75.64V74.542C47.4013 73.948 47.5693 73.471 47.9053 73.111C48.2413 72.745 48.6883 72.562 49.2463 72.562C49.8043 72.562 50.2513 72.745 50.5873 73.111C50.9233 73.471 51.0913 73.948 51.0913 74.542V74.992H52.4413V74.542C52.4413 73.54 52.1503 72.736 51.5683 72.13C50.9863 71.518 50.2123 71.212 49.2463 71.212C48.2863 71.212 47.5123 71.518 46.9243 72.13C46.3423 72.736 46.0513 73.54 46.0513 74.542V75.64C46.0513 76.204 46.0693 76.648 46.1053 76.972C46.1473 77.296 46.2613 77.557 46.4473 77.755C46.6393 77.953 46.9543 78.139 47.3923 78.313C47.8303 78.487 48.4483 78.706 49.2463 78.97C49.7083 79.12 50.0653 79.249 50.3173 79.357C50.5693 79.459 50.7493 79.57 50.8573 79.69C50.9713 79.81 51.0373 79.969 51.0553 80.167C51.0793 80.359 51.0913 80.62 51.0913 80.95V81.958C51.0913 82.552 50.9233 83.032 50.5873 83.398C50.2513 83.758 49.8043 83.938 49.2463 83.938C48.6883 83.938 48.2413 83.758 47.9053 83.398C47.5693 83.032 47.4013 82.552 47.4013 81.958V81.508H46.0513V81.958C46.0513 82.954 46.3423 83.758 46.9243 84.37C47.5123 84.982 48.2863 85.288 49.2463 85.288ZM65.1051 81.508H63.7551V81.958C63.7551 82.552 63.5871 83.032 63.2511 83.398C62.9151 83.758 62.4681 83.938 61.9101 83.938C61.3521 83.938 60.9051 83.758 60.5691 83.398C60.2331 83.032 60.0651 82.552 60.0651 81.958V74.542C60.0651 73.948 60.2331 73.471 60.5691 73.111C60.9051 72.745 61.3521 72.562 61.9101 72.562C62.4681 72.562 62.9151 72.745 63.2511 73.111C63.5871 73.471 63.7551 73.948 63.7551 74.542V74.992H65.1051V74.542C65.1051 73.54 64.8141 72.736 64.2321 72.13C63.6501 71.518 62.8761 71.212 61.9101 71.212C60.9501 71.212 60.1761 71.518 59.5881 72.13C59.0061 72.736 58.7151 73.54 58.7151 74.542V81.958C58.7151 82.954 59.0061 83.758 59.5881 84.37C60.1761 84.982 60.9501 85.288 61.9101 85.288C62.8761 85.288 63.6501 84.982 64.2321 84.37C64.8141 83.758 65.1051 82.954 65.1051 81.958V81.508ZM68.8588 71.5H67.5088V85H72.5938V83.65H68.8588V71.5ZM80.8401 71.5H79.4901V81.958C79.4901 82.552 79.3221 83.032 78.9861 83.398C78.6501 83.758 78.2031 83.938 77.6451 83.938C77.0871 83.938 76.6401 83.758 76.3041 83.398C75.9681 83.032 75.8001 82.552 75.8001 81.958V71.5H74.4501V81.958C74.4501 82.954 74.7411 83.758 75.3231 84.37C75.9111 84.982 76.6851 85.288 77.6451 85.288C78.6111 85.288 79.3851 84.982 79.9671 84.37C80.5491 83.758 80.8401 82.954 80.8401 81.958V71.5ZM83.9092 85H87.4192C88.3012 85 89.0092 84.721 89.5432 84.163C90.0772 83.599 90.3442 82.858 90.3442 81.94V80.428C90.3442 79.9 90.2482 79.426 90.0562 79.006C89.8642 78.58 89.6032 78.235 89.2732 77.971C89.5552 77.701 89.7742 77.368 89.9302 76.972C90.0862 76.576 90.1642 76.138 90.1642 75.658V74.56C90.1642 73.642 89.8972 72.904 89.3632 72.346C88.8292 71.782 88.1212 71.5 87.2392 71.5H83.9092V85ZM85.2592 77.368V72.85H87.2392C87.7192 72.85 88.1002 73.006 88.3822 73.318C88.6702 73.63 88.8142 74.044 88.8142 74.56V75.658C88.8142 76.168 88.6702 76.582 88.3822 76.9C88.1002 77.212 87.7192 77.368 87.2392 77.368H85.2592ZM85.2592 83.65V78.718H87.4192C87.8992 78.718 88.2802 78.874 88.5622 79.186C88.8502 79.498 88.9942 79.912 88.9942 80.428V81.94C88.9942 82.45 88.8502 82.864 88.5622 83.182C88.2802 83.494 87.8992 83.65 87.4192 83.65H85.2592Z" fill="white"/>
</svg>
